<?xml version="1.0" encoding="iso-8859-1"?>
<!-- Uploaded to: SVG Repo, www.svgrepo.com, Generator: SVG Repo Mixer Tools -->
<svg fill="#000000" height="800px" width="800px" version="1.1" id="Capa_1" xmlns="http://www.w3.org/2000/svg" xmlns:xlink="http://www.w3.org/1999/xlink" 
	 viewBox="0 0 463 463" xml:space="preserve">
<g>
	<path d="M335.5,0c-32.746,0-63.471,14.902-82.985,40.041C192.408,41.629,144,91.017,144,151.5
		c0,28.141,10.484,53.876,27.744,73.516c-0.552,0.32-1.075,0.708-1.548,1.18l-21.289,21.289c-4.051-2.271-8.635-3.485-13.408-3.485
		c-7.349,0-14.255,2.862-19.444,8.056l-83.999,83.999C26.861,341.248,24,348.154,24,355.5s2.861,14.252,8.053,19.441
		C37.245,380.138,44.151,383,51.5,383s14.255-2.862,19.444-8.056l83.999-83.999c5.196-5.193,8.058-12.1,8.058-19.445
		c0-4.773-1.215-9.356-3.485-13.408l21.288-21.288c0.473-0.473,0.86-0.996,1.181-1.548C201.624,252.516,227.359,263,255.5,263
		c0.51,0,1.016-0.012,1.524-0.019c3.182,14.348,6.358,27.375,9.455,38.742C269.25,311.896,278.576,319,289.158,319h92.685
		c10.582,0,19.907-7.104,22.678-17.276C421.953,237.733,439,131.837,439,99.5C439,44.636,392.57,0,335.5,0z M51.5,368
		c-3.339,0-6.477-1.3-8.839-3.664C40.3,361.977,39,358.838,39,355.5s1.3-6.477,3.663-8.837l6.698-6.698l17.674,17.675l-6.699,6.699
		C57.977,366.7,54.839,368,51.5,368z M144.337,280.337L77.64,347.034L59.966,329.36l66.699-66.699c2.357-2.36,5.495-3.66,8.834-3.66
		s6.477,1.3,8.839,3.664c2.361,2.359,3.661,5.498,3.661,8.836S146.7,277.977,144.337,280.337z M159,151.5
		c0-53.21,43.29-96.5,96.5-96.5S352,98.29,352,151.5S308.71,248,255.5,248S159,204.71,159,151.5z M390.048,297.781
		c-0.998,3.661-4.372,6.219-8.206,6.219h-92.685c-3.834,0-7.208-2.558-8.206-6.22c-2.89-10.607-5.856-22.701-8.836-36.02
		c23.76-3.565,45.087-14.657,61.478-30.761H375.5c4.142,0,7.5-3.357,7.5-7.5s-3.358-7.5-7.5-7.5h-29.096
		c5.459-7.672,9.965-16.065,13.362-25H383.5c4.142,0,7.5-3.357,7.5-7.5s-3.358-7.5-7.5-7.5h-19.218
		c1.775-7.887,2.718-16.085,2.718-24.5c0-0.167-0.006-0.333-0.006-0.5H391.5c4.142,0,7.5-3.357,7.5-7.5s-3.358-7.5-7.5-7.5h-25.583
		c-1.214-8.691-3.429-17.066-6.533-25H391.5c4.142,0,7.5-3.357,7.5-7.5s-3.358-7.5-7.5-7.5h-39.32
		c-5.33-9.249-11.95-17.663-19.61-25h42.93c4.142,0,7.5-3.357,7.5-7.5s-3.358-7.5-7.5-7.5h-62.506
		c-12.457-7.528-26.499-12.683-41.496-14.848C288.072,24.587,311.118,15,335.5,15c48.799,0,88.5,37.906,88.5,84.5
		C424,130.979,407.214,234.77,390.048,297.781z"/>
	<path d="M389.5,336h-108c-5.238,0-9.5,4.262-9.5,9.5v54c0,35.014,28.486,63.5,63.5,63.5s63.5-28.486,63.5-63.5v-54
		C399,340.262,394.738,336,389.5,336z M384,399.5c0,26.743-21.757,48.5-48.5,48.5S287,426.243,287,399.5V351h97V399.5z"/>
	<path d="M367.5,256h-64c-4.142,0-7.5,3.357-7.5,7.5s3.358,7.5,7.5,7.5h64c4.142,0,7.5-3.357,7.5-7.5S371.642,256,367.5,256z"/>
	<path d="M319.5,407h32c4.142,0,7.5-3.357,7.5-7.5s-3.358-7.5-7.5-7.5h-32c-4.142,0-7.5,3.357-7.5,7.5S315.358,407,319.5,407z"/>
	<path d="M222.907,94.321c-0.651-4.091-4.497-6.878-8.585-6.229c-4.091,0.651-6.879,4.495-6.229,8.586
		c9.271,58.277,23.965,119.949,24.112,120.565c0.823,3.442,3.897,5.758,7.288,5.758c0.578,0,1.165-0.067,1.75-0.208
		c4.028-0.963,6.514-5.01,5.55-9.038C246.648,213.146,232.085,152.015,222.907,94.321z"/>
	<path d="M327,111.5c0-4.143-3.358-7.5-7.5-7.5h-56c-4.142,0-7.5,3.357-7.5,7.5s3.358,7.5,7.5,7.5h56
		C323.642,119,327,115.643,327,111.5z"/>
	<path d="M327,159.5c0-4.143-3.358-7.5-7.5-7.5h-48c-4.142,0-7.5,3.357-7.5,7.5s3.358,7.5,7.5,7.5h48
		C323.642,167,327,163.643,327,159.5z"/>
	<path d="M303.5,200h-24c-4.142,0-7.5,3.357-7.5,7.5s3.358,7.5,7.5,7.5h24c4.142,0,7.5-3.357,7.5-7.5S307.642,200,303.5,200z"/>
</g>
</svg>