<svg width="22" height="22" fill="none" xmlns="http://www.w3.org/2000/svg"><rect y=".449" width="21.103" height="21.103" rx="4.307" fill="#FB3667"/><g clip-path="url(#a)"><path d="M18.917 4.412 12.555 15.44l-1.5 2.607a.491.491 0 0 1-.85 0l-1.44-2.493-1.316-2.276-5.113-8.866a6.678 6.678 0 0 1 5.785 3.34l1.285 2.229a1.487 1.487 0 0 0 2.571 0l1.353-2.343a6.448 6.448 0 0 1 5.587-3.226Z" fill="#fff" stroke="#fff" stroke-width=".054" stroke-miterlimit="10"/><path d="M11.859 10.144c-.255.503-2.802 5.384-4.41 3.134L2.336 4.412a6.678 6.678 0 0 1 5.785 3.34l1.285 2.229c.53.917 1.815.94 2.453.163Z" fill="#FFC1D0"/></g><defs><clipPath id="a"><path fill="#fff" transform="translate(2.281 4.385)" d="M0 0h16.674v13.934H0z"/></clipPath></defs></svg>
